<?xml version="1.0" standalone="no"?>
<!DOCTYPE svg PUBLIC "-//W3C//DTD SVG 20010904//EN"
"http://www.w3.org/TR/2001/REC-SVG-20010904/DTD/svg10.dtd">
<svg version="1.0" xmlns="http://www.w3.org/2000/svg"
width="512.000000pt" height="512.000000pt" viewBox="0 0 512.000000 512.000000"
preserveAspectRatio="xMidYMid meet">

<g transform="translate(0.000000,512.000000) scale(0.100000,-0.100000)"
fill="#000000" stroke="none">
<path d="M444 5105 c-207 -45 -385 -225 -430 -434 -21 -99 -21 -4123 0 -4222
45 -211 224 -390 435 -435 99 -21 4123 -21 4222 0 211 45 390 224 435 435 21
99 21 4123 0 4222 -45 211 -224 390 -435 435 -95 20 -4134 19 -4227 -1z m956
-857 c200 -60 329 -262 300 -469 -26 -182 -177 -333 -359 -359 -279 -39 -520
202 -481 481 36 252 297 420 540 347z m2560 0 c200 -60 329 -262 300 -469 -26
-182 -177 -333 -359 -359 -279 -39 -520 202 -481 481 36 252 297 420 540 347z
m-1280 -1280 c200 -60 329 -262 300 -469 -26 -182 -177 -333 -359 -359 -279
-39 -520 202 -481 481 36 252 297 420 540 347z m-1280 -1280 c200 -60 329
-262 300 -469 -26 -182 -177 -333 -359 -359 -279 -39 -520 202 -481 481 36
252 297 420 540 347z m2560 0 c200 -60 329 -262 300 -469 -26 -182 -177 -333
-359 -359 -279 -39 -520 202 -481 481 36 252 297 420 540 347z"/>
</g>
</svg>
